<svg width="27" height="21" viewBox="0 0 27 21" fill="none" xmlns="http://www.w3.org/2000/svg">
<path d="M25.3125 0.0761719H0.9375C0.418945 0.0761719 0 0.495117 0 1.01367V19.7637C0 20.2822 0.418945 20.7012 0.9375 20.7012H25.3125C25.8311 20.7012 26.25 20.2822 26.25 19.7637V1.01367C26.25 0.495117 25.8311 0.0761719 25.3125 0.0761719ZM24.1406 3.32227V18.5918H2.10938V3.32227L1.30078 2.69238L2.45215 1.21289L3.70605 2.18848H22.5469L23.8008 1.21289L24.9521 2.69238L24.1406 3.32227ZM22.5469 2.18555L13.125 9.50977L3.70312 2.18555L2.44922 1.20996L1.29785 2.68945L2.10645 3.31934L12.1143 11.1006C12.4021 11.3242 12.7561 11.4456 13.1206 11.4456C13.4851 11.4456 13.8391 11.3242 14.127 11.1006L24.1406 3.32227L24.9492 2.69238L23.7979 1.21289L22.5469 2.18555Z" fill="#EF2779"/>
</svg>
